<mxfile host="app.diagrams.net" modified="2021-06-17T13:17:00.047Z" agent="5.0 (Windows NT 10.0; Win64; x64) AppleWebKit/537.36 (KHTML, like Gecko) Chrome/91.0.4472.106 Safari/537.36" etag="K13b1bTL54bwLbjlwC-Y" version="14.7.10" type="github" pages="3">
  <diagram id="ZIseQpXIgW5UfZ0IgYhb" name="NUKINUKIフローチャート">
    <mxGraphModel dx="1422" dy="794" grid="1" gridSize="10" guides="1" tooltips="1" connect="1" arrows="1" fold="1" page="1" pageScale="1" pageWidth="827" pageHeight="1169" math="0" shadow="0">
      <root>
        <mxCell id="lu7oqO2vKh2KmKVtiQ_z-0" />
        <mxCell id="lu7oqO2vKh2KmKVtiQ_z-1" parent="lu7oqO2vKh2KmKVtiQ_z-0" />
        <mxCell id="WwWyU4TPKAM6BSwlgrf--0" style="edgeStyle=orthogonalEdgeStyle;rounded=0;orthogonalLoop=1;jettySize=auto;html=1;entryX=0.5;entryY=0;entryDx=0;entryDy=0;" parent="lu7oqO2vKh2KmKVtiQ_z-1" source="jcEQ0hBbGYLIos42bptR-0" target="jcEQ0hBbGYLIos42bptR-1" edge="1">
          <mxGeometry relative="1" as="geometry" />
        </mxCell>
        <mxCell id="jcEQ0hBbGYLIos42bptR-0" value="スタート" style="rounded=1;whiteSpace=wrap;html=1;" parent="lu7oqO2vKh2KmKVtiQ_z-1" vertex="1">
          <mxGeometry x="360" y="60" width="120" height="60" as="geometry" />
        </mxCell>
        <mxCell id="WwWyU4TPKAM6BSwlgrf--2" style="edgeStyle=orthogonalEdgeStyle;rounded=0;orthogonalLoop=1;jettySize=auto;html=1;entryX=0.5;entryY=0;entryDx=0;entryDy=0;" parent="lu7oqO2vKh2KmKVtiQ_z-1" source="jcEQ0hBbGYLIos42bptR-1" target="WwWyU4TPKAM6BSwlgrf--1" edge="1">
          <mxGeometry relative="1" as="geometry" />
        </mxCell>
        <mxCell id="jcEQ0hBbGYLIos42bptR-1" value="P1~P4までの名前を入力&lt;br&gt;名前が入力された数だけプレイヤーをカウント" style="rounded=1;whiteSpace=wrap;html=1;" parent="lu7oqO2vKh2KmKVtiQ_z-1" vertex="1">
          <mxGeometry x="360" y="200" width="120" height="90" as="geometry" />
        </mxCell>
        <mxCell id="WwWyU4TPKAM6BSwlgrf--4" style="edgeStyle=orthogonalEdgeStyle;rounded=0;orthogonalLoop=1;jettySize=auto;html=1;" parent="lu7oqO2vKh2KmKVtiQ_z-1" source="WwWyU4TPKAM6BSwlgrf--1" target="WwWyU4TPKAM6BSwlgrf--3" edge="1">
          <mxGeometry relative="1" as="geometry" />
        </mxCell>
        <mxCell id="WwWyU4TPKAM6BSwlgrf--1" value="微炭酸モードと&lt;br&gt;強炭酸モードの&lt;br&gt;選択" style="rounded=1;whiteSpace=wrap;html=1;" parent="lu7oqO2vKh2KmKVtiQ_z-1" vertex="1">
          <mxGeometry x="360" y="330" width="120" height="60" as="geometry" />
        </mxCell>
        <mxCell id="WwWyU4TPKAM6BSwlgrf--6" style="edgeStyle=orthogonalEdgeStyle;rounded=0;orthogonalLoop=1;jettySize=auto;html=1;" parent="lu7oqO2vKh2KmKVtiQ_z-1" source="WwWyU4TPKAM6BSwlgrf--3" target="WwWyU4TPKAM6BSwlgrf--5" edge="1">
          <mxGeometry relative="1" as="geometry" />
        </mxCell>
        <mxCell id="WwWyU4TPKAM6BSwlgrf--3" value="ゲームスタート" style="rounded=1;whiteSpace=wrap;html=1;" parent="lu7oqO2vKh2KmKVtiQ_z-1" vertex="1">
          <mxGeometry x="360" y="470" width="120" height="60" as="geometry" />
        </mxCell>
        <mxCell id="WwWyU4TPKAM6BSwlgrf--8" style="edgeStyle=orthogonalEdgeStyle;rounded=0;orthogonalLoop=1;jettySize=auto;html=1;entryX=0.5;entryY=0;entryDx=0;entryDy=0;" parent="lu7oqO2vKh2KmKVtiQ_z-1" source="WwWyU4TPKAM6BSwlgrf--5" target="WwWyU4TPKAM6BSwlgrf--7" edge="1">
          <mxGeometry relative="1" as="geometry" />
        </mxCell>
        <mxCell id="WwWyU4TPKAM6BSwlgrf--5" value="炭酸水表示&lt;br&gt;振る人の名前表示" style="rounded=1;whiteSpace=wrap;html=1;" parent="lu7oqO2vKh2KmKVtiQ_z-1" vertex="1">
          <mxGeometry x="360" y="570" width="120" height="60" as="geometry" />
        </mxCell>
        <mxCell id="WwWyU4TPKAM6BSwlgrf--11" style="edgeStyle=orthogonalEdgeStyle;rounded=0;orthogonalLoop=1;jettySize=auto;html=1;entryX=0.5;entryY=0;entryDx=0;entryDy=0;" parent="lu7oqO2vKh2KmKVtiQ_z-1" source="WwWyU4TPKAM6BSwlgrf--7" target="WwWyU4TPKAM6BSwlgrf--9" edge="1">
          <mxGeometry relative="1" as="geometry" />
        </mxCell>
        <mxCell id="WwWyU4TPKAM6BSwlgrf--12" style="edgeStyle=orthogonalEdgeStyle;rounded=0;orthogonalLoop=1;jettySize=auto;html=1;entryX=0.5;entryY=0;entryDx=0;entryDy=0;" parent="lu7oqO2vKh2KmKVtiQ_z-1" source="WwWyU4TPKAM6BSwlgrf--7" target="WwWyU4TPKAM6BSwlgrf--10" edge="1">
          <mxGeometry relative="1" as="geometry" />
        </mxCell>
        <mxCell id="WwWyU4TPKAM6BSwlgrf--7" value="シェイク" style="rounded=1;whiteSpace=wrap;html=1;" parent="lu7oqO2vKh2KmKVtiQ_z-1" vertex="1">
          <mxGeometry x="360" y="680" width="120" height="60" as="geometry" />
        </mxCell>
        <mxCell id="WwWyU4TPKAM6BSwlgrf--14" style="edgeStyle=orthogonalEdgeStyle;rounded=0;orthogonalLoop=1;jettySize=auto;html=1;entryX=0.5;entryY=0;entryDx=0;entryDy=0;" parent="lu7oqO2vKh2KmKVtiQ_z-1" source="WwWyU4TPKAM6BSwlgrf--9" target="WwWyU4TPKAM6BSwlgrf--13" edge="1">
          <mxGeometry relative="1" as="geometry" />
        </mxCell>
        <mxCell id="WwWyU4TPKAM6BSwlgrf--9" value="MAX＞ｎ回&lt;br&gt;噴出さない&lt;br&gt;振動ON" style="rounded=1;whiteSpace=wrap;html=1;" parent="lu7oqO2vKh2KmKVtiQ_z-1" vertex="1">
          <mxGeometry x="230" y="790" width="120" height="60" as="geometry" />
        </mxCell>
        <mxCell id="WwWyU4TPKAM6BSwlgrf--17" style="edgeStyle=orthogonalEdgeStyle;rounded=0;orthogonalLoop=1;jettySize=auto;html=1;entryX=0.56;entryY=-0.09;entryDx=0;entryDy=0;entryPerimeter=0;" parent="lu7oqO2vKh2KmKVtiQ_z-1" source="WwWyU4TPKAM6BSwlgrf--10" target="WwWyU4TPKAM6BSwlgrf--16" edge="1">
          <mxGeometry relative="1" as="geometry">
            <Array as="points">
              <mxPoint x="550" y="945" />
            </Array>
          </mxGeometry>
        </mxCell>
        <mxCell id="WwWyU4TPKAM6BSwlgrf--10" value="&lt;span&gt;MAX＝＜ｎ回&lt;/span&gt;&lt;br&gt;&lt;span&gt;噴出す&lt;br&gt;振動強さMAX&lt;br&gt;&lt;/span&gt;" style="rounded=1;whiteSpace=wrap;html=1;" parent="lu7oqO2vKh2KmKVtiQ_z-1" vertex="1">
          <mxGeometry x="490" y="790" width="120" height="60" as="geometry" />
        </mxCell>
        <mxCell id="WwWyU4TPKAM6BSwlgrf--15" style="edgeStyle=orthogonalEdgeStyle;rounded=0;orthogonalLoop=1;jettySize=auto;html=1;entryX=0;entryY=0.5;entryDx=0;entryDy=0;" parent="lu7oqO2vKh2KmKVtiQ_z-1" source="WwWyU4TPKAM6BSwlgrf--13" target="WwWyU4TPKAM6BSwlgrf--5" edge="1">
          <mxGeometry relative="1" as="geometry">
            <Array as="points">
              <mxPoint x="150" y="960" />
              <mxPoint x="150" y="600" />
            </Array>
          </mxGeometry>
        </mxCell>
        <mxCell id="WwWyU4TPKAM6BSwlgrf--13" value="次のプレイヤーに&lt;br&gt;5秒後バトンタッチ" style="rounded=1;whiteSpace=wrap;html=1;" parent="lu7oqO2vKh2KmKVtiQ_z-1" vertex="1">
          <mxGeometry x="230" y="930" width="120" height="60" as="geometry" />
        </mxCell>
        <mxCell id="WwWyU4TPKAM6BSwlgrf--19" style="edgeStyle=orthogonalEdgeStyle;rounded=0;orthogonalLoop=1;jettySize=auto;html=1;" parent="lu7oqO2vKh2KmKVtiQ_z-1" source="WwWyU4TPKAM6BSwlgrf--16" target="WwWyU4TPKAM6BSwlgrf--18" edge="1">
          <mxGeometry relative="1" as="geometry" />
        </mxCell>
        <mxCell id="WwWyU4TPKAM6BSwlgrf--16" value="負けた人の表示" style="rounded=1;whiteSpace=wrap;html=1;" parent="lu7oqO2vKh2KmKVtiQ_z-1" vertex="1">
          <mxGeometry x="490" y="950" width="120" height="60" as="geometry" />
        </mxCell>
        <mxCell id="WwWyU4TPKAM6BSwlgrf--22" style="edgeStyle=orthogonalEdgeStyle;rounded=0;orthogonalLoop=1;jettySize=auto;html=1;entryX=1;entryY=0.5;entryDx=0;entryDy=0;" parent="lu7oqO2vKh2KmKVtiQ_z-1" source="WwWyU4TPKAM6BSwlgrf--18" target="WwWyU4TPKAM6BSwlgrf--1" edge="1">
          <mxGeometry relative="1" as="geometry">
            <Array as="points">
              <mxPoint x="740" y="1140" />
              <mxPoint x="740" y="360" />
            </Array>
          </mxGeometry>
        </mxCell>
        <mxCell id="WwWyU4TPKAM6BSwlgrf--25" style="edgeStyle=orthogonalEdgeStyle;rounded=0;orthogonalLoop=1;jettySize=auto;html=1;entryX=0;entryY=0.5;entryDx=0;entryDy=0;" parent="lu7oqO2vKh2KmKVtiQ_z-1" source="WwWyU4TPKAM6BSwlgrf--18" target="jcEQ0hBbGYLIos42bptR-0" edge="1">
          <mxGeometry relative="1" as="geometry">
            <Array as="points">
              <mxPoint x="80" y="1140" />
              <mxPoint x="80" y="90" />
            </Array>
          </mxGeometry>
        </mxCell>
        <mxCell id="WwWyU4TPKAM6BSwlgrf--18" value="もう一度か&lt;br&gt;ホーム画面に戻るを表示" style="rounded=1;whiteSpace=wrap;html=1;" parent="lu7oqO2vKh2KmKVtiQ_z-1" vertex="1">
          <mxGeometry x="490" y="1110" width="120" height="60" as="geometry" />
        </mxCell>
        <mxCell id="WwWyU4TPKAM6BSwlgrf--23" value="Text" style="text;html=1;strokeColor=none;fillColor=none;align=center;verticalAlign=middle;whiteSpace=wrap;rounded=0;" parent="lu7oqO2vKh2KmKVtiQ_z-1" vertex="1">
          <mxGeometry x="290" y="970" width="40" height="20" as="geometry" />
        </mxCell>
        <mxCell id="WwWyU4TPKAM6BSwlgrf--24" value="もう一度" style="text;html=1;strokeColor=none;fillColor=none;align=center;verticalAlign=middle;whiteSpace=wrap;rounded=0;" parent="lu7oqO2vKh2KmKVtiQ_z-1" vertex="1">
          <mxGeometry x="620" y="1100" width="70" height="20" as="geometry" />
        </mxCell>
        <mxCell id="WwWyU4TPKAM6BSwlgrf--26" value="ホーム画面" style="text;html=1;strokeColor=none;fillColor=none;align=center;verticalAlign=middle;whiteSpace=wrap;rounded=0;" parent="lu7oqO2vKh2KmKVtiQ_z-1" vertex="1">
          <mxGeometry x="410" y="1110" width="70" height="20" as="geometry" />
        </mxCell>
      </root>
    </mxGraphModel>
  </diagram>
  <diagram id="Mfp5lATc7iv7IgcF1aNi" name="参考">
    <mxGraphModel dx="1246" dy="491" grid="1" gridSize="10" guides="1" tooltips="1" connect="1" arrows="1" fold="1" page="1" pageScale="1" pageWidth="827" pageHeight="1169" math="0" shadow="0">
      <root>
        <mxCell id="cDT3aV01rD_L_4h5Fw1i-0" />
        <mxCell id="cDT3aV01rD_L_4h5Fw1i-1" parent="cDT3aV01rD_L_4h5Fw1i-0" />
        <mxCell id="cDT3aV01rD_L_4h5Fw1i-4" style="edgeStyle=orthogonalEdgeStyle;rounded=0;orthogonalLoop=1;jettySize=auto;html=1;entryX=0.5;entryY=0;entryDx=0;entryDy=0;" parent="cDT3aV01rD_L_4h5Fw1i-1" source="cDT3aV01rD_L_4h5Fw1i-2" target="cDT3aV01rD_L_4h5Fw1i-3" edge="1">
          <mxGeometry relative="1" as="geometry" />
        </mxCell>
        <mxCell id="cDT3aV01rD_L_4h5Fw1i-6" style="edgeStyle=orthogonalEdgeStyle;rounded=0;orthogonalLoop=1;jettySize=auto;html=1;entryX=0.5;entryY=0;entryDx=0;entryDy=0;" parent="cDT3aV01rD_L_4h5Fw1i-1" target="cDT3aV01rD_L_4h5Fw1i-5" edge="1">
          <mxGeometry relative="1" as="geometry">
            <mxPoint x="380" y="130" as="sourcePoint" />
          </mxGeometry>
        </mxCell>
        <mxCell id="cDT3aV01rD_L_4h5Fw1i-2" value="スタート画面&lt;br&gt;名前を入力" style="rounded=1;whiteSpace=wrap;html=1;" parent="cDT3aV01rD_L_4h5Fw1i-1" vertex="1">
          <mxGeometry x="320" y="40" width="120" height="60" as="geometry" />
        </mxCell>
        <mxCell id="cDT3aV01rD_L_4h5Fw1i-12" style="edgeStyle=orthogonalEdgeStyle;rounded=0;orthogonalLoop=1;jettySize=auto;html=1;entryX=0.5;entryY=0;entryDx=0;entryDy=0;" parent="cDT3aV01rD_L_4h5Fw1i-1" source="cDT3aV01rD_L_4h5Fw1i-3" target="cDT3aV01rD_L_4h5Fw1i-11" edge="1">
          <mxGeometry relative="1" as="geometry" />
        </mxCell>
        <mxCell id="cDT3aV01rD_L_4h5Fw1i-3" value="参加者待ち" style="rounded=1;whiteSpace=wrap;html=1;" parent="cDT3aV01rD_L_4h5Fw1i-1" vertex="1">
          <mxGeometry x="200" y="170" width="120" height="60" as="geometry" />
        </mxCell>
        <mxCell id="cDT3aV01rD_L_4h5Fw1i-14" style="edgeStyle=orthogonalEdgeStyle;rounded=0;orthogonalLoop=1;jettySize=auto;html=1;" parent="cDT3aV01rD_L_4h5Fw1i-1" source="cDT3aV01rD_L_4h5Fw1i-5" target="cDT3aV01rD_L_4h5Fw1i-13" edge="1">
          <mxGeometry relative="1" as="geometry" />
        </mxCell>
        <mxCell id="cDT3aV01rD_L_4h5Fw1i-5" value="ホストを探す" style="rounded=1;whiteSpace=wrap;html=1;" parent="cDT3aV01rD_L_4h5Fw1i-1" vertex="1">
          <mxGeometry x="450" y="170" width="120" height="60" as="geometry" />
        </mxCell>
        <mxCell id="cDT3aV01rD_L_4h5Fw1i-7" value="ホストになる" style="text;html=1;strokeColor=none;fillColor=none;align=center;verticalAlign=middle;whiteSpace=wrap;rounded=0;" parent="cDT3aV01rD_L_4h5Fw1i-1" vertex="1">
          <mxGeometry x="190" y="80" width="80" height="40" as="geometry" />
        </mxCell>
        <mxCell id="cDT3aV01rD_L_4h5Fw1i-9" value="参加する" style="text;html=1;strokeColor=none;fillColor=none;align=center;verticalAlign=middle;whiteSpace=wrap;rounded=0;" parent="cDT3aV01rD_L_4h5Fw1i-1" vertex="1">
          <mxGeometry x="500" y="70" width="80" height="40" as="geometry" />
        </mxCell>
        <mxCell id="cDT3aV01rD_L_4h5Fw1i-16" style="edgeStyle=orthogonalEdgeStyle;rounded=0;orthogonalLoop=1;jettySize=auto;html=1;" parent="cDT3aV01rD_L_4h5Fw1i-1" source="cDT3aV01rD_L_4h5Fw1i-11" target="cDT3aV01rD_L_4h5Fw1i-15" edge="1">
          <mxGeometry relative="1" as="geometry" />
        </mxCell>
        <mxCell id="cDT3aV01rD_L_4h5Fw1i-11" value="参加者を確定" style="rounded=1;whiteSpace=wrap;html=1;" parent="cDT3aV01rD_L_4h5Fw1i-1" vertex="1">
          <mxGeometry x="200" y="300" width="120" height="60" as="geometry" />
        </mxCell>
        <mxCell id="cDT3aV01rD_L_4h5Fw1i-17" style="edgeStyle=orthogonalEdgeStyle;rounded=0;orthogonalLoop=1;jettySize=auto;html=1;entryX=0.5;entryY=0;entryDx=0;entryDy=0;" parent="cDT3aV01rD_L_4h5Fw1i-1" source="cDT3aV01rD_L_4h5Fw1i-13" target="cDT3aV01rD_L_4h5Fw1i-15" edge="1">
          <mxGeometry relative="1" as="geometry">
            <Array as="points">
              <mxPoint x="510" y="380" />
              <mxPoint x="380" y="380" />
            </Array>
          </mxGeometry>
        </mxCell>
        <mxCell id="cDT3aV01rD_L_4h5Fw1i-13" value="ホストを選択" style="rounded=1;whiteSpace=wrap;html=1;" parent="cDT3aV01rD_L_4h5Fw1i-1" vertex="1">
          <mxGeometry x="450" y="300" width="120" height="60" as="geometry" />
        </mxCell>
        <mxCell id="cDT3aV01rD_L_4h5Fw1i-19" style="edgeStyle=orthogonalEdgeStyle;rounded=0;orthogonalLoop=1;jettySize=auto;html=1;entryX=0.5;entryY=0;entryDx=0;entryDy=0;" parent="cDT3aV01rD_L_4h5Fw1i-1" source="cDT3aV01rD_L_4h5Fw1i-15" target="cDT3aV01rD_L_4h5Fw1i-18" edge="1">
          <mxGeometry relative="1" as="geometry" />
        </mxCell>
        <mxCell id="cDT3aV01rD_L_4h5Fw1i-15" value="スタート" style="rounded=1;whiteSpace=wrap;html=1;" parent="cDT3aV01rD_L_4h5Fw1i-1" vertex="1">
          <mxGeometry x="320" y="410" width="120" height="60" as="geometry" />
        </mxCell>
        <mxCell id="N900xps-qiwpy1kt57wK-15" style="edgeStyle=orthogonalEdgeStyle;rounded=0;orthogonalLoop=1;jettySize=auto;html=1;entryX=0.5;entryY=0;entryDx=0;entryDy=0;" parent="cDT3aV01rD_L_4h5Fw1i-1" source="cDT3aV01rD_L_4h5Fw1i-18" target="N900xps-qiwpy1kt57wK-12" edge="1">
          <mxGeometry relative="1" as="geometry">
            <Array as="points">
              <mxPoint x="380" y="630" />
              <mxPoint x="295" y="630" />
            </Array>
          </mxGeometry>
        </mxCell>
        <mxCell id="N900xps-qiwpy1kt57wK-18" style="edgeStyle=orthogonalEdgeStyle;rounded=0;orthogonalLoop=1;jettySize=auto;html=1;entryX=0.5;entryY=0;entryDx=0;entryDy=0;exitX=0.5;exitY=1;exitDx=0;exitDy=0;" parent="cDT3aV01rD_L_4h5Fw1i-1" source="cDT3aV01rD_L_4h5Fw1i-18" target="N900xps-qiwpy1kt57wK-14" edge="1">
          <mxGeometry relative="1" as="geometry">
            <Array as="points">
              <mxPoint x="380" y="630" />
              <mxPoint x="570" y="630" />
            </Array>
          </mxGeometry>
        </mxCell>
        <mxCell id="cDT3aV01rD_L_4h5Fw1i-18" value="質問者を参加者からランダムに指定" style="rounded=1;whiteSpace=wrap;html=1;" parent="cDT3aV01rD_L_4h5Fw1i-1" vertex="1">
          <mxGeometry x="320" y="555" width="120" height="60" as="geometry" />
        </mxCell>
        <mxCell id="cDT3aV01rD_L_4h5Fw1i-25" style="edgeStyle=orthogonalEdgeStyle;rounded=0;orthogonalLoop=1;jettySize=auto;html=1;entryX=0.5;entryY=0;entryDx=0;entryDy=0;exitX=0.5;exitY=1;exitDx=0;exitDy=0;" parent="cDT3aV01rD_L_4h5Fw1i-1" source="cDT3aV01rD_L_4h5Fw1i-20" target="cDT3aV01rD_L_4h5Fw1i-24" edge="1">
          <mxGeometry relative="1" as="geometry" />
        </mxCell>
        <mxCell id="cDT3aV01rD_L_4h5Fw1i-20" value="質問者が選択肢の中の質問を選ぶ" style="rounded=1;whiteSpace=wrap;html=1;" parent="cDT3aV01rD_L_4h5Fw1i-1" vertex="1">
          <mxGeometry x="155" y="754" width="120" height="60" as="geometry" />
        </mxCell>
        <mxCell id="cDT3aV01rD_L_4h5Fw1i-26" style="edgeStyle=orthogonalEdgeStyle;rounded=0;orthogonalLoop=1;jettySize=auto;html=1;entryX=0.5;entryY=0;entryDx=0;entryDy=0;exitX=0.5;exitY=1;exitDx=0;exitDy=0;" parent="cDT3aV01rD_L_4h5Fw1i-1" source="cDT3aV01rD_L_4h5Fw1i-22" target="cDT3aV01rD_L_4h5Fw1i-24" edge="1">
          <mxGeometry relative="1" as="geometry">
            <Array as="points">
              <mxPoint x="420" y="814" />
              <mxPoint x="420" y="844" />
              <mxPoint x="385" y="844" />
            </Array>
          </mxGeometry>
        </mxCell>
        <mxCell id="cDT3aV01rD_L_4h5Fw1i-22" value="質問者が質問を入力" style="rounded=1;whiteSpace=wrap;html=1;" parent="cDT3aV01rD_L_4h5Fw1i-1" vertex="1">
          <mxGeometry x="325" y="754" width="120" height="60" as="geometry" />
        </mxCell>
        <mxCell id="cDT3aV01rD_L_4h5Fw1i-28" style="edgeStyle=orthogonalEdgeStyle;rounded=0;orthogonalLoop=1;jettySize=auto;html=1;entryX=0.5;entryY=0;entryDx=0;entryDy=0;" parent="cDT3aV01rD_L_4h5Fw1i-1" source="cDT3aV01rD_L_4h5Fw1i-24" target="cDT3aV01rD_L_4h5Fw1i-27" edge="1">
          <mxGeometry relative="1" as="geometry" />
        </mxCell>
        <mxCell id="cDT3aV01rD_L_4h5Fw1i-24" value="ゲーム開始前に３秒間開始コメント表示" style="rounded=1;whiteSpace=wrap;html=1;" parent="cDT3aV01rD_L_4h5Fw1i-1" vertex="1">
          <mxGeometry x="325" y="884" width="120" height="60" as="geometry" />
        </mxCell>
        <mxCell id="cDT3aV01rD_L_4h5Fw1i-30" style="edgeStyle=orthogonalEdgeStyle;rounded=0;orthogonalLoop=1;jettySize=auto;html=1;" parent="cDT3aV01rD_L_4h5Fw1i-1" source="cDT3aV01rD_L_4h5Fw1i-27" target="cDT3aV01rD_L_4h5Fw1i-29" edge="1">
          <mxGeometry relative="1" as="geometry" />
        </mxCell>
        <mxCell id="cDT3aV01rD_L_4h5Fw1i-27" value="質問内容が全員の画面に表示&lt;br&gt;振るまでのカウントがされる（３秒）" style="rounded=1;whiteSpace=wrap;html=1;" parent="cDT3aV01rD_L_4h5Fw1i-1" vertex="1">
          <mxGeometry x="325" y="1014" width="120" height="60" as="geometry" />
        </mxCell>
        <mxCell id="cDT3aV01rD_L_4h5Fw1i-32" style="edgeStyle=orthogonalEdgeStyle;rounded=0;orthogonalLoop=1;jettySize=auto;html=1;entryX=0.5;entryY=0;entryDx=0;entryDy=0;" parent="cDT3aV01rD_L_4h5Fw1i-1" source="cDT3aV01rD_L_4h5Fw1i-29" target="cDT3aV01rD_L_4h5Fw1i-31" edge="1">
          <mxGeometry relative="1" as="geometry" />
        </mxCell>
        <mxCell id="cDT3aV01rD_L_4h5Fw1i-29" value="スマホを１０回振る&lt;br&gt;（３０秒カウント）&lt;br&gt;振る残りの回数を表示する" style="rounded=1;whiteSpace=wrap;html=1;" parent="cDT3aV01rD_L_4h5Fw1i-1" vertex="1">
          <mxGeometry x="325" y="1154" width="120" height="60" as="geometry" />
        </mxCell>
        <mxCell id="cDT3aV01rD_L_4h5Fw1i-34" style="edgeStyle=orthogonalEdgeStyle;rounded=0;orthogonalLoop=1;jettySize=auto;html=1;entryX=0.5;entryY=0;entryDx=0;entryDy=0;" parent="cDT3aV01rD_L_4h5Fw1i-1" source="cDT3aV01rD_L_4h5Fw1i-31" target="cDT3aV01rD_L_4h5Fw1i-33" edge="1">
          <mxGeometry relative="1" as="geometry" />
        </mxCell>
        <mxCell id="cDT3aV01rD_L_4h5Fw1i-31" value="タイムアップ表示" style="rounded=1;whiteSpace=wrap;html=1;" parent="cDT3aV01rD_L_4h5Fw1i-1" vertex="1">
          <mxGeometry x="325" y="1274" width="120" height="60" as="geometry" />
        </mxCell>
        <mxCell id="N900xps-qiwpy1kt57wK-2" style="edgeStyle=orthogonalEdgeStyle;rounded=0;orthogonalLoop=1;jettySize=auto;html=1;" parent="cDT3aV01rD_L_4h5Fw1i-1" source="cDT3aV01rD_L_4h5Fw1i-33" target="N900xps-qiwpy1kt57wK-0" edge="1">
          <mxGeometry relative="1" as="geometry" />
        </mxCell>
        <mxCell id="N900xps-qiwpy1kt57wK-3" style="edgeStyle=orthogonalEdgeStyle;rounded=0;orthogonalLoop=1;jettySize=auto;html=1;entryX=0.5;entryY=0;entryDx=0;entryDy=0;" parent="cDT3aV01rD_L_4h5Fw1i-1" source="cDT3aV01rD_L_4h5Fw1i-33" target="N900xps-qiwpy1kt57wK-1" edge="1">
          <mxGeometry relative="1" as="geometry" />
        </mxCell>
        <mxCell id="cDT3aV01rD_L_4h5Fw1i-33" value="質問と回答者表示" style="rounded=1;whiteSpace=wrap;html=1;" parent="cDT3aV01rD_L_4h5Fw1i-1" vertex="1">
          <mxGeometry x="325" y="1384" width="120" height="60" as="geometry" />
        </mxCell>
        <mxCell id="N900xps-qiwpy1kt57wK-7" style="edgeStyle=orthogonalEdgeStyle;rounded=0;orthogonalLoop=1;jettySize=auto;html=1;entryX=0;entryY=0.5;entryDx=0;entryDy=0;" parent="cDT3aV01rD_L_4h5Fw1i-1" source="cDT3aV01rD_L_4h5Fw1i-35" target="cDT3aV01rD_L_4h5Fw1i-18" edge="1">
          <mxGeometry relative="1" as="geometry">
            <Array as="points">
              <mxPoint x="80" y="1510" />
              <mxPoint x="80" y="585" />
            </Array>
          </mxGeometry>
        </mxCell>
        <mxCell id="N900xps-qiwpy1kt57wK-9" style="edgeStyle=orthogonalEdgeStyle;rounded=0;orthogonalLoop=1;jettySize=auto;html=1;entryX=0.5;entryY=0;entryDx=0;entryDy=0;" parent="cDT3aV01rD_L_4h5Fw1i-1" source="cDT3aV01rD_L_4h5Fw1i-35" target="N900xps-qiwpy1kt57wK-6" edge="1">
          <mxGeometry relative="1" as="geometry" />
        </mxCell>
        <mxCell id="cDT3aV01rD_L_4h5Fw1i-35" value="「次のゲーム」を押す" style="rounded=1;whiteSpace=wrap;html=1;" parent="cDT3aV01rD_L_4h5Fw1i-1" vertex="1">
          <mxGeometry x="325" y="1564" width="120" height="60" as="geometry" />
        </mxCell>
        <mxCell id="N900xps-qiwpy1kt57wK-4" style="edgeStyle=orthogonalEdgeStyle;rounded=0;orthogonalLoop=1;jettySize=auto;html=1;entryX=0.5;entryY=0;entryDx=0;entryDy=0;" parent="cDT3aV01rD_L_4h5Fw1i-1" source="N900xps-qiwpy1kt57wK-0" target="cDT3aV01rD_L_4h5Fw1i-35" edge="1">
          <mxGeometry relative="1" as="geometry" />
        </mxCell>
        <mxCell id="N900xps-qiwpy1kt57wK-0" value="１０回振るのが一番遅かった人が回答者&lt;br&gt;ノルマはそのまま&lt;br&gt;（１０回の場合は現状維持&lt;br&gt;１２回以上は－２回）" style="rounded=1;whiteSpace=wrap;html=1;" parent="cDT3aV01rD_L_4h5Fw1i-1" vertex="1">
          <mxGeometry x="175" y="1464" width="120" height="106" as="geometry" />
        </mxCell>
        <mxCell id="N900xps-qiwpy1kt57wK-5" style="edgeStyle=orthogonalEdgeStyle;rounded=0;orthogonalLoop=1;jettySize=auto;html=1;" parent="cDT3aV01rD_L_4h5Fw1i-1" source="N900xps-qiwpy1kt57wK-1" edge="1">
          <mxGeometry relative="1" as="geometry">
            <mxPoint x="385" y="1564" as="targetPoint" />
          </mxGeometry>
        </mxCell>
        <mxCell id="N900xps-qiwpy1kt57wK-1" value="そのほかはノルマが（１番早かった人　＋３回&lt;br&gt;そのほか　現状維持）" style="rounded=1;whiteSpace=wrap;html=1;" parent="cDT3aV01rD_L_4h5Fw1i-1" vertex="1">
          <mxGeometry x="485" y="1464" width="120" height="86" as="geometry" />
        </mxCell>
        <mxCell id="N900xps-qiwpy1kt57wK-6" value="スタート画面" style="rounded=1;whiteSpace=wrap;html=1;" parent="cDT3aV01rD_L_4h5Fw1i-1" vertex="1">
          <mxGeometry x="325" y="1694" width="120" height="60" as="geometry" />
        </mxCell>
        <mxCell id="N900xps-qiwpy1kt57wK-10" value="YES" style="text;html=1;strokeColor=none;fillColor=none;align=center;verticalAlign=middle;whiteSpace=wrap;rounded=0;" parent="cDT3aV01rD_L_4h5Fw1i-1" vertex="1">
          <mxGeometry x="275" y="1564" width="40" height="20" as="geometry" />
        </mxCell>
        <mxCell id="N900xps-qiwpy1kt57wK-11" value="NO" style="text;html=1;strokeColor=none;fillColor=none;align=center;verticalAlign=middle;whiteSpace=wrap;rounded=0;" parent="cDT3aV01rD_L_4h5Fw1i-1" vertex="1">
          <mxGeometry x="395" y="1634" width="40" height="20" as="geometry" />
        </mxCell>
        <mxCell id="N900xps-qiwpy1kt57wK-20" style="edgeStyle=orthogonalEdgeStyle;rounded=0;orthogonalLoop=1;jettySize=auto;html=1;entryX=0.5;entryY=0;entryDx=0;entryDy=0;" parent="cDT3aV01rD_L_4h5Fw1i-1" source="N900xps-qiwpy1kt57wK-12" target="cDT3aV01rD_L_4h5Fw1i-20" edge="1">
          <mxGeometry relative="1" as="geometry" />
        </mxCell>
        <mxCell id="N900xps-qiwpy1kt57wK-21" style="edgeStyle=orthogonalEdgeStyle;rounded=0;orthogonalLoop=1;jettySize=auto;html=1;entryX=0.5;entryY=0;entryDx=0;entryDy=0;" parent="cDT3aV01rD_L_4h5Fw1i-1" source="N900xps-qiwpy1kt57wK-12" target="cDT3aV01rD_L_4h5Fw1i-22" edge="1">
          <mxGeometry relative="1" as="geometry" />
        </mxCell>
        <mxCell id="N900xps-qiwpy1kt57wK-12" value="質問形式を選択" style="rounded=1;whiteSpace=wrap;html=1;" parent="cDT3aV01rD_L_4h5Fw1i-1" vertex="1">
          <mxGeometry x="235" y="650" width="120" height="60" as="geometry" />
        </mxCell>
        <mxCell id="N900xps-qiwpy1kt57wK-22" style="edgeStyle=orthogonalEdgeStyle;rounded=0;orthogonalLoop=1;jettySize=auto;html=1;entryX=0.5;entryY=0;entryDx=0;entryDy=0;" parent="cDT3aV01rD_L_4h5Fw1i-1" source="N900xps-qiwpy1kt57wK-14" target="cDT3aV01rD_L_4h5Fw1i-24" edge="1">
          <mxGeometry relative="1" as="geometry">
            <Array as="points">
              <mxPoint x="580" y="884" />
            </Array>
          </mxGeometry>
        </mxCell>
        <mxCell id="N900xps-qiwpy1kt57wK-14" value="待機状態" style="rounded=1;whiteSpace=wrap;html=1;" parent="cDT3aV01rD_L_4h5Fw1i-1" vertex="1">
          <mxGeometry x="510" y="650" width="120" height="60" as="geometry" />
        </mxCell>
        <mxCell id="N900xps-qiwpy1kt57wK-17" value="質問者" style="text;html=1;strokeColor=none;fillColor=none;align=center;verticalAlign=middle;whiteSpace=wrap;rounded=0;" parent="cDT3aV01rD_L_4h5Fw1i-1" vertex="1">
          <mxGeometry x="240" y="600" width="40" height="20" as="geometry" />
        </mxCell>
        <mxCell id="N900xps-qiwpy1kt57wK-19" value="回答者" style="text;html=1;strokeColor=none;fillColor=none;align=center;verticalAlign=middle;whiteSpace=wrap;rounded=0;" parent="cDT3aV01rD_L_4h5Fw1i-1" vertex="1">
          <mxGeometry x="460" y="600" width="40" height="20" as="geometry" />
        </mxCell>
        <mxCell id="N900xps-qiwpy1kt57wK-23" value="回答者" style="text;html=1;strokeColor=none;fillColor=none;align=center;verticalAlign=middle;whiteSpace=wrap;rounded=0;" parent="cDT3aV01rD_L_4h5Fw1i-1" vertex="1">
          <mxGeometry x="270" y="1384" width="40" height="20" as="geometry" />
        </mxCell>
        <mxCell id="N900xps-qiwpy1kt57wK-24" value="その他" style="text;html=1;strokeColor=none;fillColor=none;align=center;verticalAlign=middle;whiteSpace=wrap;rounded=0;" parent="cDT3aV01rD_L_4h5Fw1i-1" vertex="1">
          <mxGeometry x="480" y="1384" width="40" height="20" as="geometry" />
        </mxCell>
      </root>
    </mxGraphModel>
  </diagram>
  <diagram id="FHRUwoRGVbY5Ipv8thIW" name="NUKINUKIクラス図">
    <mxGraphModel dx="2249" dy="794" grid="1" gridSize="10" guides="1" tooltips="1" connect="1" arrows="1" fold="1" page="1" pageScale="1" pageWidth="827" pageHeight="1169" math="0" shadow="0">
      <root>
        <mxCell id="K_yfMPnD7VsegasrJMCv-0" />
        <mxCell id="K_yfMPnD7VsegasrJMCv-1" parent="K_yfMPnD7VsegasrJMCv-0" />
        <mxCell id="oZbB2HGCWLyvw8gAJ0ts-0" value="Csodamode" style="swimlane;fontStyle=1;align=center;verticalAlign=top;childLayout=stackLayout;horizontal=1;startSize=26;horizontalStack=0;resizeParent=1;resizeParentMax=0;resizeLast=0;collapsible=1;marginBottom=0;" parent="K_yfMPnD7VsegasrJMCv-1" vertex="1">
          <mxGeometry x="300" y="230" width="200" height="120" as="geometry" />
        </mxCell>
        <mxCell id="oZbB2HGCWLyvw8gAJ0ts-1" value="+ field: type" style="text;strokeColor=none;fillColor=none;align=left;verticalAlign=top;spacingLeft=4;spacingRight=4;overflow=hidden;rotatable=0;points=[[0,0.5],[1,0.5]];portConstraint=eastwest;" parent="oZbB2HGCWLyvw8gAJ0ts-0" vertex="1">
          <mxGeometry y="26" width="200" height="26" as="geometry" />
        </mxCell>
        <mxCell id="oZbB2HGCWLyvw8gAJ0ts-2" value="" style="line;strokeWidth=1;fillColor=none;align=left;verticalAlign=middle;spacingTop=-1;spacingLeft=3;spacingRight=3;rotatable=0;labelPosition=right;points=[];portConstraint=eastwest;" parent="oZbB2HGCWLyvw8gAJ0ts-0" vertex="1">
          <mxGeometry y="52" width="200" height="8" as="geometry" />
        </mxCell>
        <mxCell id="oZbB2HGCWLyvw8gAJ0ts-3" value="+ shake(): abstract&#xa;+ judge(): abstract&#xa;+ spout(): abstract" style="text;strokeColor=none;fillColor=none;align=left;verticalAlign=top;spacingLeft=4;spacingRight=4;overflow=hidden;rotatable=0;points=[[0,0.5],[1,0.5]];portConstraint=eastwest;" parent="oZbB2HGCWLyvw8gAJ0ts-0" vertex="1">
          <mxGeometry y="60" width="200" height="60" as="geometry" />
        </mxCell>
        <mxCell id="2MhjM7DFTFFa1SL279_b-10" style="edgeStyle=orthogonalEdgeStyle;rounded=0;orthogonalLoop=1;jettySize=auto;html=1;entryX=0.5;entryY=1;entryDx=0;entryDy=0;entryPerimeter=0;fillColor=#d5e8d4;strokeColor=#82b366;" parent="K_yfMPnD7VsegasrJMCv-1" source="2MhjM7DFTFFa1SL279_b-0" target="oZbB2HGCWLyvw8gAJ0ts-3" edge="1">
          <mxGeometry relative="1" as="geometry">
            <Array as="points">
              <mxPoint x="530" y="370" />
              <mxPoint x="400" y="370" />
            </Array>
          </mxGeometry>
        </mxCell>
        <mxCell id="6Zz1Hfak9K9u3G77RN5m-12" style="edgeStyle=orthogonalEdgeStyle;rounded=0;orthogonalLoop=1;jettySize=auto;html=1;entryX=0.5;entryY=0;entryDx=0;entryDy=0;" edge="1" parent="K_yfMPnD7VsegasrJMCv-1" source="2MhjM7DFTFFa1SL279_b-0" target="6Zz1Hfak9K9u3G77RN5m-7">
          <mxGeometry relative="1" as="geometry" />
        </mxCell>
        <mxCell id="2MhjM7DFTFFa1SL279_b-0" value="Ceasysoda" style="swimlane;fontStyle=1;align=center;verticalAlign=top;childLayout=stackLayout;horizontal=1;startSize=26;horizontalStack=0;resizeParent=1;resizeParentMax=0;resizeLast=0;collapsible=1;marginBottom=0;" parent="K_yfMPnD7VsegasrJMCv-1" vertex="1">
          <mxGeometry x="450" y="380" width="160" height="120" as="geometry" />
        </mxCell>
        <mxCell id="2MhjM7DFTFFa1SL279_b-1" value="+ max: int [40]&#xa;+ shakenum: int" style="text;strokeColor=none;fillColor=none;align=left;verticalAlign=top;spacingLeft=4;spacingRight=4;overflow=hidden;rotatable=0;points=[[0,0.5],[1,0.5]];portConstraint=eastwest;" parent="2MhjM7DFTFFa1SL279_b-0" vertex="1">
          <mxGeometry y="26" width="160" height="34" as="geometry" />
        </mxCell>
        <mxCell id="2MhjM7DFTFFa1SL279_b-2" value="" style="line;strokeWidth=1;fillColor=none;align=left;verticalAlign=middle;spacingTop=-1;spacingLeft=3;spacingRight=3;rotatable=0;labelPosition=right;points=[];portConstraint=eastwest;" parent="2MhjM7DFTFFa1SL279_b-0" vertex="1">
          <mxGeometry y="60" width="160" height="8" as="geometry" />
        </mxCell>
        <mxCell id="2MhjM7DFTFFa1SL279_b-3" value="+ shake(): void&#xa;+ judge(): void&#xa;+ judge(): void&#xa;" style="text;strokeColor=none;fillColor=none;align=left;verticalAlign=top;spacingLeft=4;spacingRight=4;overflow=hidden;rotatable=0;points=[[0,0.5],[1,0.5]];portConstraint=eastwest;" parent="2MhjM7DFTFFa1SL279_b-0" vertex="1">
          <mxGeometry y="68" width="160" height="52" as="geometry" />
        </mxCell>
        <mxCell id="2MhjM7DFTFFa1SL279_b-9" style="edgeStyle=orthogonalEdgeStyle;rounded=0;orthogonalLoop=1;jettySize=auto;html=1;entryX=0.513;entryY=1.026;entryDx=0;entryDy=0;entryPerimeter=0;fillColor=#d5e8d4;strokeColor=#82b366;" parent="K_yfMPnD7VsegasrJMCv-1" source="2MhjM7DFTFFa1SL279_b-4" target="oZbB2HGCWLyvw8gAJ0ts-3" edge="1">
          <mxGeometry relative="1" as="geometry">
            <Array as="points">
              <mxPoint x="230" y="370" />
              <mxPoint x="390" y="370" />
              <mxPoint x="390" y="352" />
            </Array>
          </mxGeometry>
        </mxCell>
        <mxCell id="6Zz1Hfak9K9u3G77RN5m-11" style="edgeStyle=orthogonalEdgeStyle;rounded=0;orthogonalLoop=1;jettySize=auto;html=1;entryX=0;entryY=0.885;entryDx=0;entryDy=0;entryPerimeter=0;" edge="1" parent="K_yfMPnD7VsegasrJMCv-1" source="2MhjM7DFTFFa1SL279_b-4" target="6Zz1Hfak9K9u3G77RN5m-8">
          <mxGeometry relative="1" as="geometry" />
        </mxCell>
        <mxCell id="2MhjM7DFTFFa1SL279_b-4" value="Cstrongsoda" style="swimlane;fontStyle=1;align=center;verticalAlign=top;childLayout=stackLayout;horizontal=1;startSize=26;horizontalStack=0;resizeParent=1;resizeParentMax=0;resizeLast=0;collapsible=1;marginBottom=0;" parent="K_yfMPnD7VsegasrJMCv-1" vertex="1">
          <mxGeometry x="150" y="380" width="160" height="120" as="geometry" />
        </mxCell>
        <mxCell id="2MhjM7DFTFFa1SL279_b-5" value="+ max: int [20]&#xa;+ shakenum: int" style="text;strokeColor=none;fillColor=none;align=left;verticalAlign=top;spacingLeft=4;spacingRight=4;overflow=hidden;rotatable=0;points=[[0,0.5],[1,0.5]];portConstraint=eastwest;" parent="2MhjM7DFTFFa1SL279_b-4" vertex="1">
          <mxGeometry y="26" width="160" height="34" as="geometry" />
        </mxCell>
        <mxCell id="2MhjM7DFTFFa1SL279_b-6" value="" style="line;strokeWidth=1;fillColor=none;align=left;verticalAlign=middle;spacingTop=-1;spacingLeft=3;spacingRight=3;rotatable=0;labelPosition=right;points=[];portConstraint=eastwest;" parent="2MhjM7DFTFFa1SL279_b-4" vertex="1">
          <mxGeometry y="60" width="160" height="8" as="geometry" />
        </mxCell>
        <mxCell id="2MhjM7DFTFFa1SL279_b-7" value="+ shake(): void&#xa;+ judge(): void&#xa;+ spout(): void" style="text;strokeColor=none;fillColor=none;align=left;verticalAlign=top;spacingLeft=4;spacingRight=4;overflow=hidden;rotatable=0;points=[[0,0.5],[1,0.5]];portConstraint=eastwest;" parent="2MhjM7DFTFFa1SL279_b-4" vertex="1">
          <mxGeometry y="68" width="160" height="52" as="geometry" />
        </mxCell>
        <mxCell id="2MhjM7DFTFFa1SL279_b-15" style="edgeStyle=orthogonalEdgeStyle;rounded=0;orthogonalLoop=1;jettySize=auto;html=1;entryX=0;entryY=0.5;entryDx=0;entryDy=0;" parent="K_yfMPnD7VsegasrJMCv-1" source="2MhjM7DFTFFa1SL279_b-11" target="oZbB2HGCWLyvw8gAJ0ts-1" edge="1">
          <mxGeometry relative="1" as="geometry" />
        </mxCell>
        <mxCell id="2MhjM7DFTFFa1SL279_b-11" value="Csetting" style="swimlane;fontStyle=1;align=center;verticalAlign=top;childLayout=stackLayout;horizontal=1;startSize=26;horizontalStack=0;resizeParent=1;resizeParentMax=0;resizeLast=0;collapsible=1;marginBottom=0;" parent="K_yfMPnD7VsegasrJMCv-1" vertex="1">
          <mxGeometry x="40" y="230" width="200" height="86" as="geometry" />
        </mxCell>
        <mxCell id="2MhjM7DFTFFa1SL279_b-12" value="+ field: type" style="text;strokeColor=none;fillColor=none;align=left;verticalAlign=top;spacingLeft=4;spacingRight=4;overflow=hidden;rotatable=0;points=[[0,0.5],[1,0.5]];portConstraint=eastwest;" parent="2MhjM7DFTFFa1SL279_b-11" vertex="1">
          <mxGeometry y="26" width="200" height="26" as="geometry" />
        </mxCell>
        <mxCell id="2MhjM7DFTFFa1SL279_b-13" value="" style="line;strokeWidth=1;fillColor=none;align=left;verticalAlign=middle;spacingTop=-1;spacingLeft=3;spacingRight=3;rotatable=0;labelPosition=right;points=[];portConstraint=eastwest;" parent="2MhjM7DFTFFa1SL279_b-11" vertex="1">
          <mxGeometry y="52" width="200" height="8" as="geometry" />
        </mxCell>
        <mxCell id="2MhjM7DFTFFa1SL279_b-14" value="+ setmode(csodamode soda): void" style="text;strokeColor=none;fillColor=none;align=left;verticalAlign=top;spacingLeft=4;spacingRight=4;overflow=hidden;rotatable=0;points=[[0,0.5],[1,0.5]];portConstraint=eastwest;" parent="2MhjM7DFTFFa1SL279_b-11" vertex="1">
          <mxGeometry y="60" width="200" height="26" as="geometry" />
        </mxCell>
        <mxCell id="2MhjM7DFTFFa1SL279_b-16" value="Cplayer" style="swimlane;fontStyle=1;align=center;verticalAlign=top;childLayout=stackLayout;horizontal=1;startSize=26;horizontalStack=0;resizeParent=1;resizeParentMax=0;resizeLast=0;collapsible=1;marginBottom=0;" parent="K_yfMPnD7VsegasrJMCv-1" vertex="1">
          <mxGeometry x="-330" y="230" width="160" height="128" as="geometry" />
        </mxCell>
        <mxCell id="2MhjM7DFTFFa1SL279_b-17" value="+ name: int&#xa;+ num: int&#xa;" style="text;strokeColor=none;fillColor=none;align=left;verticalAlign=top;spacingLeft=4;spacingRight=4;overflow=hidden;rotatable=0;points=[[0,0.5],[1,0.5]];portConstraint=eastwest;" parent="2MhjM7DFTFFa1SL279_b-16" vertex="1">
          <mxGeometry y="26" width="160" height="44" as="geometry" />
        </mxCell>
        <mxCell id="2MhjM7DFTFFa1SL279_b-18" value="" style="line;strokeWidth=1;fillColor=none;align=left;verticalAlign=middle;spacingTop=-1;spacingLeft=3;spacingRight=3;rotatable=0;labelPosition=right;points=[];portConstraint=eastwest;" parent="2MhjM7DFTFFa1SL279_b-16" vertex="1">
          <mxGeometry y="70" width="160" height="8" as="geometry" />
        </mxCell>
        <mxCell id="2MhjM7DFTFFa1SL279_b-19" value="+ createplayer(): void&#xa;+ playername(string): string" style="text;strokeColor=none;fillColor=none;align=left;verticalAlign=top;spacingLeft=4;spacingRight=4;overflow=hidden;rotatable=0;points=[[0,0.5],[1,0.5]];portConstraint=eastwest;" parent="2MhjM7DFTFFa1SL279_b-16" vertex="1">
          <mxGeometry y="78" width="160" height="50" as="geometry" />
        </mxCell>
        <mxCell id="2MhjM7DFTFFa1SL279_b-20" value="Cplay" style="swimlane;fontStyle=1;align=center;verticalAlign=top;childLayout=stackLayout;horizontal=1;startSize=26;horizontalStack=0;resizeParent=1;resizeParentMax=0;resizeLast=0;collapsible=1;marginBottom=0;" parent="K_yfMPnD7VsegasrJMCv-1" vertex="1">
          <mxGeometry x="-80" y="60" width="160" height="108" as="geometry" />
        </mxCell>
        <mxCell id="2MhjM7DFTFFa1SL279_b-21" value="+ loser: string&#xa;+ nextplayer: int&#xa;" style="text;strokeColor=none;fillColor=none;align=left;verticalAlign=top;spacingLeft=4;spacingRight=4;overflow=hidden;rotatable=0;points=[[0,0.5],[1,0.5]];portConstraint=eastwest;" parent="2MhjM7DFTFFa1SL279_b-20" vertex="1">
          <mxGeometry y="26" width="160" height="34" as="geometry" />
        </mxCell>
        <mxCell id="2MhjM7DFTFFa1SL279_b-22" value="" style="line;strokeWidth=1;fillColor=none;align=left;verticalAlign=middle;spacingTop=-1;spacingLeft=3;spacingRight=3;rotatable=0;labelPosition=right;points=[];portConstraint=eastwest;" parent="2MhjM7DFTFFa1SL279_b-20" vertex="1">
          <mxGeometry y="60" width="160" height="8" as="geometry" />
        </mxCell>
        <mxCell id="2MhjM7DFTFFa1SL279_b-23" value="+ play(void): void&#xa;+ shaking(void): void" style="text;strokeColor=none;fillColor=none;align=left;verticalAlign=top;spacingLeft=4;spacingRight=4;overflow=hidden;rotatable=0;points=[[0,0.5],[1,0.5]];portConstraint=eastwest;" parent="2MhjM7DFTFFa1SL279_b-20" vertex="1">
          <mxGeometry y="68" width="160" height="40" as="geometry" />
        </mxCell>
        <mxCell id="2MhjM7DFTFFa1SL279_b-25" value="use" style="text;html=1;strokeColor=none;fillColor=none;align=center;verticalAlign=middle;whiteSpace=wrap;rounded=0;" parent="K_yfMPnD7VsegasrJMCv-1" vertex="1">
          <mxGeometry x="-170" y="200" width="40" height="20" as="geometry" />
        </mxCell>
        <mxCell id="2MhjM7DFTFFa1SL279_b-28" value="use" style="text;html=1;strokeColor=none;fillColor=none;align=center;verticalAlign=middle;whiteSpace=wrap;rounded=0;" parent="K_yfMPnD7VsegasrJMCv-1" vertex="1">
          <mxGeometry x="130" y="200" width="40" height="20" as="geometry" />
        </mxCell>
        <mxCell id="2MhjM7DFTFFa1SL279_b-27" style="edgeStyle=orthogonalEdgeStyle;rounded=0;orthogonalLoop=1;jettySize=auto;html=1;exitX=0.473;exitY=0.974;exitDx=0;exitDy=0;exitPerimeter=0;" parent="K_yfMPnD7VsegasrJMCv-1" source="2MhjM7DFTFFa1SL279_b-23" target="2MhjM7DFTFFa1SL279_b-11" edge="1">
          <mxGeometry relative="1" as="geometry" />
        </mxCell>
        <mxCell id="2MhjM7DFTFFa1SL279_b-24" style="edgeStyle=orthogonalEdgeStyle;rounded=0;orthogonalLoop=1;jettySize=auto;html=1;exitX=0.494;exitY=1.026;exitDx=0;exitDy=0;exitPerimeter=0;" parent="K_yfMPnD7VsegasrJMCv-1" source="2MhjM7DFTFFa1SL279_b-23" target="2MhjM7DFTFFa1SL279_b-16" edge="1">
          <mxGeometry relative="1" as="geometry" />
        </mxCell>
        <mxCell id="M4jBm2LQEQY-EE1gHJL2-2" value="ゲームを実行するクラス" style="text;html=1;strokeColor=none;fillColor=none;align=center;verticalAlign=middle;whiteSpace=wrap;rounded=0;" parent="K_yfMPnD7VsegasrJMCv-1" vertex="1">
          <mxGeometry x="80" y="60" width="160" height="20" as="geometry" />
        </mxCell>
        <mxCell id="M4jBm2LQEQY-EE1gHJL2-3" value="負けた人の名前" style="text;html=1;strokeColor=none;fillColor=none;align=center;verticalAlign=middle;whiteSpace=wrap;rounded=0;" parent="K_yfMPnD7VsegasrJMCv-1" vertex="1">
          <mxGeometry x="80" y="87" width="160" height="20" as="geometry" />
        </mxCell>
        <mxCell id="M4jBm2LQEQY-EE1gHJL2-4" value="次のプレイヤー" style="text;html=1;strokeColor=none;fillColor=none;align=center;verticalAlign=middle;whiteSpace=wrap;rounded=0;" parent="K_yfMPnD7VsegasrJMCv-1" vertex="1">
          <mxGeometry x="80" y="104" width="160" height="20" as="geometry" />
        </mxCell>
        <mxCell id="M4jBm2LQEQY-EE1gHJL2-5" value="ゲームを実行する関数" style="text;html=1;strokeColor=none;fillColor=none;align=center;verticalAlign=middle;whiteSpace=wrap;rounded=0;" parent="K_yfMPnD7VsegasrJMCv-1" vertex="1">
          <mxGeometry x="80" y="124" width="160" height="20" as="geometry" />
        </mxCell>
        <mxCell id="M4jBm2LQEQY-EE1gHJL2-6" value="ソーダを振る関数" style="text;html=1;strokeColor=none;fillColor=none;align=center;verticalAlign=middle;whiteSpace=wrap;rounded=0;" parent="K_yfMPnD7VsegasrJMCv-1" vertex="1">
          <mxGeometry x="80" y="148" width="160" height="20" as="geometry" />
        </mxCell>
        <mxCell id="M4jBm2LQEQY-EE1gHJL2-7" value="プレイヤークラス" style="text;html=1;strokeColor=none;fillColor=none;align=center;verticalAlign=middle;whiteSpace=wrap;rounded=0;" parent="K_yfMPnD7VsegasrJMCv-1" vertex="1">
          <mxGeometry x="-490" y="230" width="160" height="20" as="geometry" />
        </mxCell>
        <mxCell id="M4jBm2LQEQY-EE1gHJL2-8" value="プレイヤーの名前" style="text;html=1;strokeColor=none;fillColor=none;align=center;verticalAlign=middle;whiteSpace=wrap;rounded=0;" parent="K_yfMPnD7VsegasrJMCv-1" vertex="1">
          <mxGeometry x="-493" y="260" width="160" height="20" as="geometry" />
        </mxCell>
        <mxCell id="M4jBm2LQEQY-EE1gHJL2-9" value="プレイヤーの人数" style="text;html=1;strokeColor=none;fillColor=none;align=center;verticalAlign=middle;whiteSpace=wrap;rounded=0;" parent="K_yfMPnD7VsegasrJMCv-1" vertex="1">
          <mxGeometry x="-493" y="280" width="160" height="20" as="geometry" />
        </mxCell>
        <mxCell id="M4jBm2LQEQY-EE1gHJL2-10" value="プレイヤーのインスタンスを生成する関数" style="text;html=1;strokeColor=none;fillColor=none;align=center;verticalAlign=middle;whiteSpace=wrap;rounded=0;" parent="K_yfMPnD7VsegasrJMCv-1" vertex="1">
          <mxGeometry x="-570" y="310" width="237" height="30" as="geometry" />
        </mxCell>
        <mxCell id="M4jBm2LQEQY-EE1gHJL2-11" value="プレイヤーの名前を入力する関数" style="text;html=1;strokeColor=none;fillColor=none;align=center;verticalAlign=middle;whiteSpace=wrap;rounded=0;" parent="K_yfMPnD7VsegasrJMCv-1" vertex="1">
          <mxGeometry x="-560" y="340" width="227" height="30" as="geometry" />
        </mxCell>
        <mxCell id="M4jBm2LQEQY-EE1gHJL2-12" value="モードの設定をする関数" style="text;html=1;strokeColor=none;fillColor=none;align=center;verticalAlign=middle;whiteSpace=wrap;rounded=0;" parent="K_yfMPnD7VsegasrJMCv-1" vertex="1">
          <mxGeometry x="-120" y="230" width="160" height="20" as="geometry" />
        </mxCell>
        <mxCell id="M4jBm2LQEQY-EE1gHJL2-13" value="モードの切り替えをする関数" style="text;html=1;strokeColor=none;fillColor=none;align=center;verticalAlign=middle;whiteSpace=wrap;rounded=0;" parent="K_yfMPnD7VsegasrJMCv-1" vertex="1">
          <mxGeometry x="-120" y="290" width="160" height="20" as="geometry" />
        </mxCell>
        <mxCell id="M4jBm2LQEQY-EE1gHJL2-14" value="モードのインターフェースクラス" style="text;html=1;strokeColor=none;fillColor=none;align=center;verticalAlign=middle;whiteSpace=wrap;rounded=0;" parent="K_yfMPnD7VsegasrJMCv-1" vertex="1">
          <mxGeometry x="500" y="230" width="190" height="20" as="geometry" />
        </mxCell>
        <mxCell id="M4jBm2LQEQY-EE1gHJL2-15" value="ソーダを振る関数" style="text;html=1;strokeColor=none;fillColor=none;align=center;verticalAlign=middle;whiteSpace=wrap;rounded=0;" parent="K_yfMPnD7VsegasrJMCv-1" vertex="1">
          <mxGeometry x="500" y="290" width="190" height="20" as="geometry" />
        </mxCell>
        <mxCell id="M4jBm2LQEQY-EE1gHJL2-16" value="振った回数を判定する関数" style="text;html=1;strokeColor=none;fillColor=none;align=center;verticalAlign=middle;whiteSpace=wrap;rounded=0;" parent="K_yfMPnD7VsegasrJMCv-1" vertex="1">
          <mxGeometry x="500" y="310" width="190" height="20" as="geometry" />
        </mxCell>
        <mxCell id="M4jBm2LQEQY-EE1gHJL2-17" value="強炭酸クラス" style="text;html=1;strokeColor=none;fillColor=none;align=center;verticalAlign=middle;whiteSpace=wrap;rounded=0;" parent="K_yfMPnD7VsegasrJMCv-1" vertex="1">
          <mxGeometry x="-40" y="380" width="190" height="20" as="geometry" />
        </mxCell>
        <mxCell id="M4jBm2LQEQY-EE1gHJL2-18" value="噴き出す回数" style="text;html=1;strokeColor=none;fillColor=none;align=center;verticalAlign=middle;whiteSpace=wrap;rounded=0;" parent="K_yfMPnD7VsegasrJMCv-1" vertex="1">
          <mxGeometry x="-40" y="406" width="190" height="20" as="geometry" />
        </mxCell>
        <mxCell id="M4jBm2LQEQY-EE1gHJL2-19" value="振った回数" style="text;html=1;strokeColor=none;fillColor=none;align=center;verticalAlign=middle;whiteSpace=wrap;rounded=0;" parent="K_yfMPnD7VsegasrJMCv-1" vertex="1">
          <mxGeometry x="-40" y="424" width="190" height="20" as="geometry" />
        </mxCell>
        <mxCell id="M4jBm2LQEQY-EE1gHJL2-20" value="ソーダを振る関数の実体" style="text;html=1;strokeColor=none;fillColor=none;align=center;verticalAlign=middle;whiteSpace=wrap;rounded=0;" parent="K_yfMPnD7VsegasrJMCv-1" vertex="1">
          <mxGeometry x="-40" y="444" width="190" height="20" as="geometry" />
        </mxCell>
        <mxCell id="M4jBm2LQEQY-EE1gHJL2-21" value="振った回数を判定する関数の実体" style="text;html=1;strokeColor=none;fillColor=none;align=center;verticalAlign=middle;whiteSpace=wrap;rounded=0;" parent="K_yfMPnD7VsegasrJMCv-1" vertex="1">
          <mxGeometry x="-40" y="464" width="190" height="20" as="geometry" />
        </mxCell>
        <mxCell id="M4jBm2LQEQY-EE1gHJL2-22" value="微炭酸クラス" style="text;html=1;strokeColor=none;fillColor=none;align=center;verticalAlign=middle;whiteSpace=wrap;rounded=0;" parent="K_yfMPnD7VsegasrJMCv-1" vertex="1">
          <mxGeometry x="610" y="384" width="190" height="20" as="geometry" />
        </mxCell>
        <mxCell id="M4jBm2LQEQY-EE1gHJL2-23" value="噴き出す回数" style="text;html=1;strokeColor=none;fillColor=none;align=center;verticalAlign=middle;whiteSpace=wrap;rounded=0;" parent="K_yfMPnD7VsegasrJMCv-1" vertex="1">
          <mxGeometry x="610" y="410" width="190" height="20" as="geometry" />
        </mxCell>
        <mxCell id="M4jBm2LQEQY-EE1gHJL2-24" value="振った回数" style="text;html=1;strokeColor=none;fillColor=none;align=center;verticalAlign=middle;whiteSpace=wrap;rounded=0;" parent="K_yfMPnD7VsegasrJMCv-1" vertex="1">
          <mxGeometry x="610" y="428" width="190" height="20" as="geometry" />
        </mxCell>
        <mxCell id="M4jBm2LQEQY-EE1gHJL2-25" value="ソーダを振る関数の実体" style="text;html=1;strokeColor=none;fillColor=none;align=center;verticalAlign=middle;whiteSpace=wrap;rounded=0;" parent="K_yfMPnD7VsegasrJMCv-1" vertex="1">
          <mxGeometry x="610" y="448" width="190" height="20" as="geometry" />
        </mxCell>
        <mxCell id="M4jBm2LQEQY-EE1gHJL2-26" value="振った回数を判定する関数の実体" style="text;html=1;strokeColor=none;fillColor=none;align=center;verticalAlign=middle;whiteSpace=wrap;rounded=0;" parent="K_yfMPnD7VsegasrJMCv-1" vertex="1">
          <mxGeometry x="610" y="468" width="190" height="20" as="geometry" />
        </mxCell>
        <mxCell id="M4jBm2LQEQY-EE1gHJL2-27" value="噴き出す関数の実体" style="text;html=1;strokeColor=none;fillColor=none;align=center;verticalAlign=middle;whiteSpace=wrap;rounded=0;" parent="K_yfMPnD7VsegasrJMCv-1" vertex="1">
          <mxGeometry x="-40" y="480" width="190" height="20" as="geometry" />
        </mxCell>
        <mxCell id="M4jBm2LQEQY-EE1gHJL2-28" value="噴き出す関数の実体" style="text;html=1;strokeColor=none;fillColor=none;align=center;verticalAlign=middle;whiteSpace=wrap;rounded=0;" parent="K_yfMPnD7VsegasrJMCv-1" vertex="1">
          <mxGeometry x="610" y="480" width="190" height="20" as="geometry" />
        </mxCell>
        <mxCell id="M4jBm2LQEQY-EE1gHJL2-29" value="噴き出す関数" style="text;html=1;strokeColor=none;fillColor=none;align=center;verticalAlign=middle;whiteSpace=wrap;rounded=0;" parent="K_yfMPnD7VsegasrJMCv-1" vertex="1">
          <mxGeometry x="500" y="330" width="190" height="20" as="geometry" />
        </mxCell>
        <mxCell id="6Zz1Hfak9K9u3G77RN5m-0" value="Actor" style="shape=umlActor;verticalLabelPosition=bottom;verticalAlign=top;html=1;outlineConnect=0;fillColor=#d5e8d4;strokeColor=#82b366;" vertex="1" parent="K_yfMPnD7VsegasrJMCv-1">
          <mxGeometry x="-265" y="488" width="35" height="232" as="geometry" />
        </mxCell>
        <mxCell id="6Zz1Hfak9K9u3G77RN5m-1" value="Text" style="text;html=1;strokeColor=none;fillColor=none;align=center;verticalAlign=middle;whiteSpace=wrap;rounded=0;" vertex="1" parent="K_yfMPnD7VsegasrJMCv-1">
          <mxGeometry x="110" y="400" width="40" height="20" as="geometry" />
        </mxCell>
        <mxCell id="6Zz1Hfak9K9u3G77RN5m-2" value="アニメーション用のボトルクラスを作る&lt;br&gt;" style="text;html=1;strokeColor=none;fillColor=none;align=center;verticalAlign=middle;whiteSpace=wrap;rounded=0;" vertex="1" parent="K_yfMPnD7VsegasrJMCv-1">
          <mxGeometry x="380" y="670" width="240" height="50" as="geometry" />
        </mxCell>
        <mxCell id="6Zz1Hfak9K9u3G77RN5m-7" value="Cbottle" style="swimlane;fontStyle=1;align=center;verticalAlign=top;childLayout=stackLayout;horizontal=1;startSize=26;horizontalStack=0;resizeParent=1;resizeParentMax=0;resizeLast=0;collapsible=1;marginBottom=0;" vertex="1" parent="K_yfMPnD7VsegasrJMCv-1">
          <mxGeometry x="400" y="590" width="160" height="86" as="geometry" />
        </mxCell>
        <mxCell id="6Zz1Hfak9K9u3G77RN5m-8" value="+ field: type" style="text;strokeColor=none;fillColor=none;align=left;verticalAlign=top;spacingLeft=4;spacingRight=4;overflow=hidden;rotatable=0;points=[[0,0.5],[1,0.5]];portConstraint=eastwest;" vertex="1" parent="6Zz1Hfak9K9u3G77RN5m-7">
          <mxGeometry y="26" width="160" height="26" as="geometry" />
        </mxCell>
        <mxCell id="6Zz1Hfak9K9u3G77RN5m-9" value="" style="line;strokeWidth=1;fillColor=none;align=left;verticalAlign=middle;spacingTop=-1;spacingLeft=3;spacingRight=3;rotatable=0;labelPosition=right;points=[];portConstraint=eastwest;" vertex="1" parent="6Zz1Hfak9K9u3G77RN5m-7">
          <mxGeometry y="52" width="160" height="8" as="geometry" />
        </mxCell>
        <mxCell id="6Zz1Hfak9K9u3G77RN5m-10" value="+ move(): void" style="text;strokeColor=none;fillColor=none;align=left;verticalAlign=top;spacingLeft=4;spacingRight=4;overflow=hidden;rotatable=0;points=[[0,0.5],[1,0.5]];portConstraint=eastwest;" vertex="1" parent="6Zz1Hfak9K9u3G77RN5m-7">
          <mxGeometry y="60" width="160" height="26" as="geometry" />
        </mxCell>
      </root>
    </mxGraphModel>
  </diagram>
</mxfile>
